<?xml version="1.0" encoding="UTF-8"?>
<svg width="500px" height="150px" viewBox="0 0 500 150" version="1.1" xmlns="http://www.w3.org/2000/svg" xmlns:xlink="http://www.w3.org/1999/xlink">
    <title>hitalker-logo-text-500x150</title>
    <g id="页面-2" stroke="none" stroke-width="1" fill="none" fill-rule="evenodd">
        <g id="hitalker-logo-text-500x150">
            <rect id="矩形" x="0" y="0" width="500" height="150"></rect>
            <g id="HiTalker" transform="translate(119.000000, 45.000000)" fill-rule="nonzero">
                <path d="M19.156048,26.0915952 L30.156745,26.0915952 C30.5278382,26.0915952 30.8921009,26.1914035 31.2113645,26.3805618 L40.1969448,31.7043674 C40.6884779,31.9955925 41.3230288,31.8332108 41.614254,31.3416777 C41.7088331,31.1820459 41.7587373,30.9999145 41.7587373,30.8143679 L41.7587373,26.0915952 L41.7587373,26.0915952 L41.7587373,2.85976363 C41.7587373,1.71710552 42.6850447,0.790798108 43.8277028,0.790798108 L56.7768542,0.790798108 C57.9195123,0.790798108 58.8458198,1.71710552 58.8458198,2.85976363 L58.8458198,64.2778497 C58.8458198,65.4205078 57.9195123,66.3468152 56.7768542,66.3468152 L43.8277028,66.3468152 C42.6850447,66.3468152 41.7587373,65.4205078 41.7587373,64.2778497 L41.7587373,46.1145627 C41.7587373,44.9719046 40.8324299,44.0455972 39.6897718,44.0455972 L29.9469544,44.0455972 C29.6030219,44.0455972 29.2645148,43.9598573 28.9620517,43.796133 L18.6140166,38.1947037 C18.1115752,37.9227303 17.483788,38.1095616 17.2118146,38.612003 C17.1299524,38.7632345 17.0870825,38.9324881 17.0870825,39.1044543 L17.0870825,44.0455972 L17.0870825,44.0455972 L17.0870825,64.2778497 C17.0870825,65.4205078 16.1607751,66.3468152 15.018117,66.3468152 L2.06896552,66.3468152 C0.926307414,66.3468152 5.84024469e-16,65.4205078 0,64.2778497 L0,2.85976363 C-1.39935259e-16,1.71710552 0.926307414,0.790798108 2.06896552,0.790798108 L15.018117,0.790798108 C16.1607751,0.790798108 17.0870825,1.71710552 17.0870825,2.85976363 L17.0870825,24.0226296 C17.0870825,25.1652877 18.0133899,26.0915952 19.156048,26.0915952 Z" id="路径" fill="#141C33"></path>
                <path d="M87.1088384,23.8929919 L87.1088384,64.2778497 C87.1088384,65.4205078 86.182531,66.3468152 85.0398729,66.3468152 L73.47792,66.3468152 C72.3352619,66.3468152 71.4089545,65.4205078 71.4089545,64.2778497 L71.4089545,23.8929919 C71.4089545,22.7503338 72.3352619,21.8240264 73.47792,21.8240264 L85.0398729,21.8240264 C86.182531,21.8240264 87.1088384,22.7503338 87.1088384,23.8929919 Z" id="形状" fill="#141C33"></path>
                <path d="M125.843971,17.2925207 L125.843971,64.2778497 C125.843971,65.4205078 124.917664,66.3468152 123.775005,66.3468152 L110.785255,66.3468152 C109.642597,66.3468152 108.71629,65.4205078 108.71629,64.2778497 L108.71629,17.2925207 C108.71629,16.1498626 107.789982,15.2235552 106.647324,15.2235552 L96.7160882,15.2235552 C95.5734301,15.2235552 94.6471227,14.2972478 94.6471227,13.1545897 L94.6471227,2.85976363 C94.6471227,1.71710552 95.5734301,0.790798108 96.7160882,0.790798108 L137.844172,0.790798108 C138.98683,0.790798108 139.913138,1.71710552 139.913138,2.85976363 L139.913138,13.1545897 C139.913138,14.2972478 138.98683,15.2235552 137.844172,15.2235552 L127.912937,15.2235552 C126.770278,15.2235552 125.843971,16.1498626 125.843971,17.2925207 Z" id="路径" fill="#141C33"></path>
                <path d="M157.577756,44.0908481 C157.577756,45.5443072 157.839939,46.8960242 158.364303,48.145999 C158.888668,49.3959738 159.602386,50.4860681 160.505459,51.4162819 C161.408531,52.3464958 162.486392,53.0732253 163.739041,53.5964706 C164.991689,54.1197159 166.346298,54.3813385 167.802866,54.3813385 C169.201172,54.3813385 170.526649,54.1197159 171.779298,53.5964706 C173.031947,53.0732253 174.109807,52.3464958 175.01288,51.4162819 C175.915952,50.4860681 176.644236,49.4105084 177.197732,48.1896028 C177.751228,46.9686971 178.027976,45.6605839 178.027976,44.2652632 C178.027976,42.8699425 177.751228,41.5472947 177.197732,40.2973199 C176.644236,39.0473451 175.915952,37.9572507 175.01288,37.0270369 C174.109807,36.0968231 173.031947,35.3700935 171.779298,34.8468483 C170.526649,34.323603 169.201172,34.0619804 167.802866,34.0619804 C166.346298,34.0619804 164.991689,34.323603 163.739041,34.8468483 C162.486392,35.3700935 161.408531,36.0968231 160.505459,37.0270369 C159.602386,37.9572507 158.888668,39.0182759 158.364303,40.2101123 C157.839939,41.4019488 157.577756,42.6955274 157.577756,44.0908481 Z M179.572577,21.852924 L191.340372,21.852924 C192.48303,21.852924 193.409338,22.7792314 193.409338,23.9218895 L193.409338,64.5214294 C193.409338,65.6640875 192.48303,66.5903949 191.340372,66.5903949 L179.572577,66.5903949 C178.429919,66.5903949 177.503611,65.6640875 177.503611,64.5214294 L177.503611,63.5176064 C177.502213,62.946279 177.037929,62.4842581 176.466602,62.4856537 C176.274242,62.4861235 176.085823,62.5402181 175.922049,62.6411201 C171.286789,65.5165333 167.240352,66.9542398 163.782738,66.9542398 C160.520025,66.9542398 157.519494,66.3583216 154.781145,65.1664851 C152.042797,63.9746487 149.654025,62.3031707 147.614829,60.1520513 C145.575633,58.0009318 143.987974,55.471913 142.851851,52.5649948 C141.715727,49.6580766 141.147666,46.4895358 141.147666,43.0593723 C141.147666,39.8617623 141.701162,37.8555086 142.808153,34.9776596 C143.915145,32.0998106 145.459108,29.5853263 147.440041,27.4342069 C149.420974,25.2830874 151.780614,23.5825403 154.518963,22.3325655 C157.257311,21.0825906 160.287376,20.4576032 163.607949,20.4576032 C168.59541,20.4576032 172.71621,21.8944845 175.970347,24.7682472 C176.352274,25.1055035 176.935289,25.0693142 177.27256,24.6874008 C177.421444,24.5188102 177.503611,24.301637 177.503611,24.0767164 L177.503611,23.9218895 C177.503611,22.7792314 178.429919,21.852924 179.572577,21.852924 Z" id="形状" fill="#141C33"></path>
                <path d="M219.745928,2.49301668 L219.745928,64.2778497 C219.745928,65.4205078 218.819621,66.3468152 217.676963,66.3468152 L206.177543,66.3468152 C205.034885,66.3468152 204.108578,65.4205078 204.108578,64.2778497 L204.108578,2.49301668 C204.108578,1.35035857 205.034885,0.42405116 206.177543,0.42405116 L217.676963,0.42405116 C218.819621,0.42405116 219.745928,1.35035857 219.745928,2.49301668 Z" id="路径" fill="#141C33"></path>
                <path d="M246.187668,2.49301668 L246.187668,35.4004172 C246.187668,35.9717463 246.650822,36.4349 247.222151,36.4349 C247.491544,36.4349 247.750311,36.3298119 247.943424,36.1419829 L262.411786,22.069539 C262.604899,21.88171 262.863666,21.7766219 263.133059,21.7766219 L281.632941,21.7766219 C282.20427,21.7766219 282.667423,22.2397756 282.667423,22.8111047 C282.667423,23.1001947 282.546457,23.3760961 282.333832,23.5719629 L262.717534,41.6422189 C262.297324,42.0293108 262.270476,42.6837586 262.657568,43.103969 C262.665568,43.1126532 262.673716,43.1211998 262.682008,43.129605 L283.850045,64.5858045 C284.251295,64.9925171 284.246867,65.6475004 283.840155,66.0487506 C283.646569,66.2397364 283.385566,66.3468152 283.113627,66.3468152 L263.938814,66.3468152 C263.65585,66.3468152 263.385237,66.2309054 263.190004,66.0260824 L247.97096,50.0594762 C247.576767,49.6459201 246.921957,49.6302234 246.508401,50.0244166 C246.303578,50.2196497 246.187668,50.4902625 246.187668,50.7732261 L246.187668,64.2778497 C246.187668,65.4205078 245.261361,66.3468152 244.118703,66.3468152 L232.514134,66.3468152 C231.371476,66.3468152 230.445168,65.4205078 230.445168,64.2778497 L230.445168,2.49301668 C230.445168,1.35035857 231.371476,0.42405116 232.514134,0.42405116 L244.118703,0.42405116 C245.261361,0.42405116 246.187668,1.35035857 246.187668,2.49301668 Z" id="路径" fill="#141C33"></path>
                <path d="M320.767071,36.0602697 C319.906519,34.218092 319.039722,32.9406991 318.166678,32.2280909 C316.532315,30.8940676 314.547732,30.227056 312.212928,30.227056 C309.761383,30.227056 307.762207,30.8650671 306.2154,32.1410894 C305.373014,32.8360065 304.566333,34.163106 303.795358,36.1223878 C303.586221,36.6540632 303.847876,37.2545292 304.379616,37.4635014 C304.499443,37.5105929 304.627007,37.5349025 304.755755,37.5351836 L319.83542,37.5351836 C320.406745,37.5328203 320.867986,37.0677617 320.865631,36.4964375 C320.865009,36.3455926 320.831406,36.1967086 320.767071,36.0602697 Z M302.873588,47.7579456 C303.206913,53.8189959 306.407582,56.8495211 312.475593,56.8495211 C314.694132,56.8495211 317.194271,55.5497152 319.97601,52.9501033 C320.165869,52.7727056 320.415908,52.6742017 320.675745,52.6734481 L334.022776,52.6734481 C334.594105,52.6731239 335.057521,53.1360146 335.057846,53.7073435 C335.05793,53.8561007 335.025931,54.0031263 334.963217,54.1380203 C330.882074,63.0120015 323.357015,67.6278999 312.388038,67.9857156 C308.596123,68.1094106 305.12096,67.4202057 301.968975,66.289186 C298.816989,65.1581662 296.117372,63.5486381 293.870123,61.4606016 C291.622874,59.3725652 289.886363,56.8785216 288.660591,53.9784709 C287.434819,51.0784202 286.821933,47.8303635 286.821933,44.2343007 C286.821933,40.5222358 287.405634,37.1726773 288.573036,34.1856251 C289.740438,31.1985729 291.403986,28.6610286 293.56368,26.5729921 C295.723373,24.4849556 298.335436,22.8754275 301.399866,21.7444078 C304.464296,20.613388 307.922725,20.0478781 311.775152,20.0478781 C315.569209,20.0478781 318.98386,20.613388 322.019105,21.7444078 C325.05435,22.8754275 327.622635,24.5139562 329.723959,26.6599936 C331.825282,28.8060311 333.43046,31.430577 334.539492,34.5336312 C335.648524,37.6366854 336.178995,40.1378712 336.178995,44.0239391 C335.455433,44.95187 334.908932,45.5727682 334.539492,45.8866337 C334.305953,46.0850425 333.881409,46.3176578 333.265862,46.5844794 C333.138482,46.6412517 333.000567,46.6698888 332.861121,46.6703432 L303.903241,46.6703432 C303.331915,46.6721539 302.870227,47.136769 302.872033,47.7080952 C302.872085,47.7247239 302.872539,47.7413488 302.873588,47.7579456 Z" id="形状" fill="#141C33"></path>
                <path d="M347.325209,21.8220504 L359.051226,21.8220504 C360.193884,21.8220504 361.120191,22.7483578 361.120191,23.8910159 L361.120191,27.6709096 C361.120632,27.9565738 361.352566,28.1877932 361.63823,28.1873525 C361.790675,28.1871174 361.935252,28.1196464 362.031282,28.0012195 C364.138521,25.4912377 365.909116,23.8220827 367.343066,22.9937547 C369.797157,21.5761371 372.660264,20.8673283 375.932386,20.8673283 C376.341401,20.8673283 376.794239,20.8673283 377.290901,20.8673283 C377.477795,20.8673283 377.740707,20.8857636 378.079636,20.9226341 C378.603821,20.9810478 379.000337,21.4242823 379,21.9517113 L379,33.4731306 C378.998798,34.0444583 378.534672,34.5066383 377.963345,34.5054384 C377.963191,34.5054381 377.963037,34.5054377 377.962884,34.5054354 C375.533842,34.497689 373.600748,34.4938158 372.163603,34.4938158 C368.482465,34.4938158 365.721613,36.610203 363.881044,38.7800259 C362.040475,40.9498487 361.120191,44.1177901 361.120191,48.2838499 L361.120191,64.2778497 C361.120191,65.4205078 360.193884,66.3468152 359.051226,66.3468152 L347.325209,66.3468152 C346.182551,66.3468152 345.256243,65.4205078 345.256243,64.2778497 L345.256243,23.8910159 C345.256243,22.7483578 346.182551,21.8220504 347.325209,21.8220504 Z" id="路径" fill="#141C33"></path>
                <path d="M70.3680782,8.85248433 C70.3680782,7.63743746 70.599384,6.49471481 71.0619957,5.42431638 C71.5246074,4.35391795 72.1606984,3.41370311 72.9702689,2.60367186 C73.7798393,1.79364062 74.7195193,1.15718749 75.7893088,0.694312496 C76.8590983,0.231437499 78.0011709,0 79.2155266,0 C80.4298823,0 81.5719549,0.231437499 82.6417444,0.694312496 C83.7115339,1.15718749 84.6512139,1.79364062 85.4607843,2.60367186 C86.2703548,3.41370311 86.9064458,4.35391795 87.3690575,5.42431638 C87.8316692,6.49471481 88.062975,7.63743746 88.062975,8.85248433 C88.062975,10.0675312 87.8316692,11.2102538 87.3690575,12.2806523 C86.9064458,13.3510507 86.2703548,14.2912655 85.4607843,15.1012968 C84.6512139,15.911328 83.7115339,16.5477812 82.6417444,17.0106562 C81.5719549,17.4735312 80.4298823,17.7049687 79.2155266,17.7049687 C78.0011709,17.7049687 76.8590983,17.4735312 75.7893088,17.0106562 C74.7195193,16.5477812 73.7798393,15.911328 72.9702689,15.1012968 C72.1606984,14.2912655 71.5246074,13.3510507 71.0619957,12.2806523 C70.599384,11.2102538 70.3680782,10.0675312 70.3680782,8.85248433 Z" id="路径" fill="#46C3FE"></path>
            </g>
            <g id="编组-7" transform="translate(0.293088, 41.000000)">
                <path d="M35.8905404,4.28616183 C42.4015778,6.64859689 45.7646845,13.8419676 43.4022494,20.353005 C43.3993874,20.360893 43.3965174,20.3687781 43.3936395,20.3766604 L27.9357924,62.7143309 C25.5541218,69.2375153 18.3409157,72.601078 11.8129639,70.2325058 C5.30192646,67.8700707 1.93881976,60.6767 4.30125483,54.1656626 C4.30411687,54.1577746 4.30698683,54.1498895 4.3098647,54.1420073 L19.7677118,11.8043367 C22.1493824,5.28115229 29.3625885,1.91758961 35.8905404,4.28616183 Z" id="矩形" fill="#2A73E4"></path>
                <path d="M35.8623159,4.275921 L35.9187648,4.29640267 C42.4142455,6.65319321 45.7693168,13.829377 43.4125263,20.3248577 C43.4096711,20.3327268 43.406808,20.3405931 43.403937,20.3484565 C41.0279568,26.8560552 33.8319851,30.2115814 27.3196304,27.8486684 L27.2631814,27.8281867 C20.7677007,25.4713961 17.4126294,18.2952124 19.76942,11.7997317 C19.7722752,11.7918625 19.7751383,11.7839962 19.7780093,11.7761328 C22.1539894,5.26853414 29.3499611,1.91300795 35.8623159,4.275921 Z" id="矩形" fill="#46C3FE"></path>
                <path d="M50.700109,31.1422811 L50.7310112,31.1534936 C54.2868814,32.4436892 56.1235734,36.3722018 54.8333777,39.9280719 C54.8318147,39.9323798 54.8302473,39.9366861 54.8286756,39.9409908 C53.5279749,43.5034948 49.5886296,45.3404358 46.023522,44.0468885 L45.9926198,44.0356761 C42.4367496,42.7454804 40.6000576,38.8169678 41.8902532,35.2610977 C41.8918163,35.2567898 41.8933837,35.2524835 41.8949553,35.2481788 C43.1956561,31.6856749 47.1350013,29.8487338 50.700109,31.1422811 Z" id="矩形" fill="#46C3FE"></path>
                <path d="M85.1870361,4.76749421 C91.6980735,7.12992928 95.0611802,14.3233 92.6987452,20.8343374 C92.6958831,20.8422254 92.6930132,20.8501105 92.6901353,20.8579927 L77.2322882,63.1956633 C74.8506176,69.7188477 67.6374115,73.0824104 61.1094596,70.7138382 C54.5984222,68.3514031 51.2353155,61.1580324 53.5977506,54.646995 C53.6006126,54.639107 53.6034826,54.6312219 53.6063605,54.6233396 L69.0642076,12.2856691 C71.4458782,5.76248467 78.6590843,2.39892199 85.1870361,4.76749421 Z" id="矩形" fill="#2A73E4"></path>
                <path d="M69.6803696,47.1513316 L69.7368186,47.1718133 C76.2322993,49.5286039 79.5873706,56.7047876 77.23058,63.2002683 C77.2277248,63.2081375 77.2248617,63.2160038 77.2219907,63.2238672 C74.8460106,69.7314659 67.6500389,73.086992 61.1376841,70.724079 L61.0812352,70.7035973 C54.5857545,68.3468068 51.2306832,61.170623 53.5874737,54.6751423 C53.5903289,54.6672732 53.593192,54.6594069 53.596063,54.6515435 C55.9720432,48.1439448 63.1680149,44.7884186 69.6803696,47.1513316 Z" id="矩形" fill="#46C3FE"></path>
            </g>
        </g>
    </g>
</svg>