<?xml version="1.0" encoding="UTF-8"?>
<svg width="500px" height="150px" viewBox="0 0 500 150" version="1.1" xmlns="http://www.w3.org/2000/svg" xmlns:xlink="http://www.w3.org/1999/xlink">
    <title>hitalker-text-500x150</title>
    <g id="页面-2" stroke="none" stroke-width="1" fill="none" fill-rule="evenodd">
        <g id="hitalker-text-500x150">
            <rect id="矩形" x="0" y="0" width="500" height="150"></rect>
            <g id="HiTalker" transform="translate(2.000000, 31.000000)" fill-rule="nonzero">
                <path d="M25.0698973,34.1492937 L39.4662243,34.1492937 C39.9519556,34.1492937 40.4287451,34.2799444 40.846626,34.5275538 L52.6058008,41.4952874 C53.249116,41.8764748 54.0796395,41.6639782 54.4608269,41.0206629 C54.5846316,40.8117225 54.649957,40.5733277 54.649957,40.3304621 L54.649957,34.1492937 L54.649957,34.1492937 L54.649957,3.74292592 C54.649957,2.24738811 55.8623299,1.03501517 57.3578677,1.03501517 L74.3040328,1.03501517 C75.7995706,1.03501517 77.0119435,2.24738811 77.0119435,3.74292592 L77.0119435,84.1283621 C77.0119435,85.6238999 75.7995706,86.8362728 74.3040328,86.8362728 L57.3578677,86.8362728 C55.8623299,86.8362728 54.649957,85.6238999 54.649957,84.1283621 L54.649957,60.3558247 C54.649957,58.8602869 53.437584,57.647914 51.9420462,57.647914 L39.1919072,57.647914 C38.7417261,57.647914 38.2986475,57.5356786 37.9027547,57.3213613 L24.3605182,49.9902471 C23.7029243,49.6342575 22.8812525,49.878756 22.5252629,50.5363499 C22.4181042,50.7342963 22.3619866,50.9558356 22.3619866,51.1809262 L22.3619866,57.647914 L22.3619866,57.647914 L22.3619866,84.1283621 C22.3619866,85.6238999 21.1496136,86.8362728 19.6540758,86.8362728 L2.70791075,86.8362728 C1.21237294,86.8362728 -7.0502786e-16,85.6238999 0,84.1283621 L0,3.74292592 C-1.83150559e-16,2.24738811 1.21237294,1.03501517 2.70791075,1.03501517 L19.6540758,1.03501517 C21.1496136,1.03501517 22.3619866,2.24738811 22.3619866,3.74292592 L22.3619866,31.4413829 C22.3619866,32.9369207 23.5743595,34.1492937 25.0698973,34.1492937 Z" id="路径" fill="#141C33"></path>
                <path d="M113.999957,31.27171 L113.999957,84.1283621 C113.999957,85.6238999 112.787584,86.8362728 111.292047,86.8362728 L96.1613182,86.8362728 C94.6657804,86.8362728 93.4534074,85.6238999 93.4534074,84.1283621 L93.4534074,31.27171 C93.4534074,29.7761722 94.6657804,28.5637992 96.1613182,28.5637992 L111.292047,28.5637992 C112.787584,28.5637992 113.999957,29.7761722 113.999957,31.27171 Z" id="形状" fill="#141C33"></path>
                <path d="M164.692901,22.632858 L164.692901,84.1283621 C164.692901,85.6238999 163.480528,86.8362728 161.984991,86.8362728 L144.985693,86.8362728 C143.490156,86.8362728 142.277783,85.6238999 142.277783,84.1283621 L142.277783,22.632858 C142.277783,21.1373202 141.06541,19.9249472 139.569872,19.9249472 L126.573274,19.9249472 C125.077737,19.9249472 123.865364,18.7125743 123.865364,17.2170365 L123.865364,3.74292592 C123.865364,2.24738811 125.077737,1.03501517 126.573274,1.03501517 L180.39741,1.03501517 C181.892947,1.03501517 183.10532,2.24738811 183.10532,3.74292592 L183.10532,17.2170365 C183.10532,18.7125743 181.892947,19.9249472 180.39741,19.9249472 L167.400812,19.9249472 C165.905274,19.9249472 164.692901,21.1373202 164.692901,22.632858 Z" id="路径" fill="#141C33"></path>
                <path d="M206.223132,57.7071394 C206.223132,59.6094609 206.566252,61.3786199 207.252492,63.0146163 C207.938732,64.6506128 208.87278,66.0773539 210.054637,67.2948396 C211.236495,68.5123253 212.647098,69.4634861 214.286449,70.1483218 C215.925799,70.8331575 217.698585,71.1755754 219.604806,71.1755754 C221.434779,71.1755754 223.16944,70.8331575 224.808791,70.1483218 C226.448141,69.4634861 227.858745,68.5123253 229.040602,67.2948396 C230.222459,66.0773539 231.17557,64.669636 231.899934,63.071686 C232.624298,61.4737359 232.98648,59.7616466 232.98648,57.935418 C232.98648,56.1091894 232.624298,54.3780769 231.899934,52.7420804 C231.17557,51.106084 230.222459,49.6793429 229.040602,48.4618571 C227.858745,47.2443714 226.448141,46.2932107 224.808791,45.6083749 C223.16944,44.9235392 221.434779,44.5811214 219.604806,44.5811214 C217.698585,44.5811214 215.925799,44.9235392 214.286449,45.6083749 C212.647098,46.2932107 211.236495,47.2443714 210.054637,48.4618571 C208.87278,49.6793429 207.938732,51.0680375 207.252492,52.6279411 C206.566252,54.1878447 206.223132,55.8809108 206.223132,57.7071394 Z M235.008152,28.6016211 L250.408267,28.6016211 C251.903805,28.6016211 253.116178,29.813994 253.116178,31.3095318 L253.116178,84.4471649 C253.116178,85.9427027 251.903805,87.1550757 250.408267,87.1550757 L235.008152,87.1550757 C233.512614,87.1550757 232.300241,85.9427027 232.300241,84.4471649 L232.300241,83.1365145 C232.301001,82.388746 231.695432,81.7819426 230.947664,81.7811812 C230.695076,81.780924 230.447453,81.8513284 230.232909,81.9846391 C224.165679,85.7490694 218.869254,87.6312845 214.343635,87.6312845 C210.0737,87.6312845 206.146884,86.8513327 202.563187,85.2914291 C198.979491,83.7315255 195.853288,81.5438558 193.184578,78.72842 C190.515868,75.9129843 188.438087,72.6029449 186.951234,68.798302 C185.464382,64.9936591 184.720955,60.8465983 184.720955,56.3571197 C184.720955,52.1720124 185.44532,49.5461804 186.894048,45.7795839 C188.342776,42.0129874 190.363371,38.7219713 192.955832,35.9065355 C195.548293,33.0910997 198.636371,30.8653836 202.220068,29.2293872 C205.803764,27.5933907 209.769231,26.7753925 214.114889,26.7753925 C220.641955,26.7753925 226.034834,28.6559819 230.293529,32.4171608 C230.793329,32.8586303 231.556376,32.8112945 231.997813,32.3114656 C232.19269,32.0908111 232.300241,31.8065628 232.300241,31.5121729 L232.300241,31.3095318 C232.300241,29.813994 233.512614,28.6016211 235.008152,28.6016211 Z" id="形状" fill="#141C33"></path>
                <path d="M287.583062,3.26291889 L287.583062,84.1283621 C287.583062,85.6238999 286.370689,86.8362728 284.875151,86.8362728 L269.82626,86.8362728 C268.330723,86.8362728 267.11835,85.6238999 267.11835,84.1283621 L267.11835,3.26291889 C267.11835,1.76738107 268.330723,0.555008135 269.82626,0.555008135 L284.875151,0.555008135 C286.370689,0.555008135 287.583062,1.76738107 287.583062,3.26291889 Z" id="路径" fill="#141C33"></path>
                <path d="M322.187555,3.26291889 L322.187555,46.3327002 C322.187555,47.0804691 322.793741,47.6866556 323.54151,47.6866556 C323.894119,47.6866556 324.232817,47.5490976 324.485573,47.3032368 L343.420131,28.8851739 C343.672886,28.6393131 344.011584,28.5017551 344.364193,28.5017551 L368.574954,28.5017551 C369.322723,28.5017551 369.92891,29.1079416 369.92891,29.8557105 C369.92891,30.2340574 369.770603,30.5951457 369.492342,30.851499 L343.820267,54.5023546 C343.270308,55.0090139 343.235207,55.8655721 343.741866,56.4155309 C343.75231,56.4268671 343.762946,56.4380241 343.773771,56.448997 L371.476619,84.5314635 C372.001761,85.0638018 371.995927,85.9210591 371.463589,86.4462012 C371.210223,86.696142 370.868634,86.8362728 370.512735,86.8362728 L345.418693,86.8362728 C345.048323,86.8362728 344.69412,86.6845502 344.438592,86.4164466 L324.521611,65.5192816 C324.005706,64.9779868 323.148676,64.9574045 322.607381,65.4733098 C322.339278,65.728838 322.187555,66.0830404 322.187555,66.4534108 L322.187555,84.1283621 C322.187555,85.6238999 320.975182,86.8362728 319.479644,86.8362728 L304.293144,86.8362728 C302.797606,86.8362728 301.585233,85.6238999 301.585233,84.1283621 L301.585233,3.26291889 C301.585233,1.76738107 302.797606,0.555008135 304.293144,0.555008135 L319.479644,0.555008135 C320.975182,0.555008135 322.187555,1.76738107 322.187555,3.26291889 Z" id="路径" fill="#141C33"></path>
                <path d="M419.790151,47.1965295 C418.663941,44.7854439 417.529557,43.113562 416.386998,42.1808837 C414.248096,40.4348826 411.650857,39.5618821 408.595283,39.5618821 C405.386929,39.5618821 402.770593,40.3969261 400.746275,42.0670141 C399.643838,42.9765379 398.58813,44.7134769 397.579149,47.2778311 C397.305442,47.9737066 397.647906,48.7596092 398.343861,49.0331142 C398.501557,49.0950878 398.669486,49.1269112 398.838923,49.1269315 L418.567998,49.1269315 C419.315765,49.1254108 419.92072,48.517995 419.919202,47.7702277 C419.918799,47.5718354 419.874803,47.3759556 419.790151,47.1965295 Z M396.372991,62.5097967 C396.81013,70.4405928 400.998811,74.4059908 408.939035,74.4059908 C411.841719,74.4059908 415.112749,72.7056338 418.752124,69.3049197 C419.00089,69.0711589 419.329273,68.9412542 419.670632,68.9402483 L437.137986,68.9402483 C437.885755,68.9398949 438.492228,69.5457947 438.492582,70.2935635 C438.492674,70.4882143 438.450794,70.6805965 438.368748,70.8571147 C433.027728,82.4715902 423.179628,88.5129867 408.824451,88.9813043 C403.861945,89.1431991 399.313974,88.2411516 395.188948,86.7608464 C391.063922,85.2805411 387.530914,83.1739528 384.589923,80.4410815 C381.648932,77.7082103 379.376349,74.4439474 377.772172,70.6482928 C376.167995,66.8526383 375.365907,62.6015052 375.365907,57.8948935 C375.365907,53.0364557 376.1298,48.6524747 377.657588,44.7429505 C379.185375,40.8334263 381.362472,37.5122286 384.188879,34.7793573 C387.015286,32.0464861 390.43371,29.9398978 394.444152,28.4595925 C398.454594,26.9792872 402.980664,26.2391346 408.022362,26.2391346 C412.987671,26.2391346 417.45645,26.9792872 421.428697,28.4595925 C425.400944,29.9398978 428.762076,32.0844426 431.512094,34.893227 C434.262111,37.7020113 436.362819,41.1370787 437.814217,45.1984291 C439.265615,49.2597794 439.959846,52.5333902 439.959846,57.6195673 C439.012915,58.8340651 438.297705,59.6467113 437.814217,60.0575059 C437.508582,60.317188 436.952978,60.6216403 436.147407,60.9708628 C435.980705,61.0451623 435.800214,61.0826426 435.61772,61.0832434 L397.720336,61.0832434 C396.972572,61.0857684 396.368429,61.6939922 396.370947,62.4417569 C396.371023,62.4644513 396.37167,62.4871403 396.372991,62.5097967 Z" id="形状" fill="#141C33"></path>
                <path d="M454.547216,28.561213 L469.892656,28.561213 C471.388194,28.561213 472.600567,29.773586 472.600567,31.2691238 L472.600567,36.2163375 C472.602678,36.590216 472.907469,36.8916016 473.281348,36.889501 C473.480395,36.8883827 473.668864,36.7997215 473.795223,36.64591 C476.551968,33.3623147 478.86839,31.1786004 480.744487,30.0947672 C483.956174,28.239356 487.703142,27.3116503 491.985391,27.3116503 C492.520673,27.3116503 493.113305,27.3116503 493.763289,27.3116503 C494.00788,27.3116503 494.351955,27.3357788 494.795514,27.3840358 C495.481532,27.460549 496.000442,28.0406449 496,28.7309163 L496,43.8104209 C495.998422,44.5581881 495.39096,45.1630963 494.643193,45.1615212 C494.642151,45.161519 494.64111,45.1615156 494.640068,45.1615173 C491.462408,45.1513843 488.933438,45.1463178 487.053158,45.1463178 C482.235628,45.1463178 478.62248,47.9162951 476.213715,50.7562103 C473.804949,53.5961255 472.600567,57.7424017 472.600567,63.1950389 L472.600567,84.1283621 C472.600567,85.6238999 471.388194,86.8362728 469.892656,86.8362728 L454.547216,86.8362728 C453.051678,86.8362728 451.839305,85.6238999 451.839305,84.1283621 L451.839305,31.2691238 C451.839305,29.773586 453.051678,28.561213 454.547216,28.561213 Z" id="路径" fill="#141C33"></path>
                <path d="M92.0912052,11.5863398 C92.0912052,9.99605785 92.3939168,8.50043556 92.99934,7.09947291 C93.6047632,5.69851025 94.4372201,4.46793495 95.4967107,3.40774699 C96.5562013,2.34755904 97.7859672,1.51455422 99.1860084,0.908732532 C100.58605,0.302910844 102.080688,0 103.669924,0 C105.25916,0 106.753798,0.302910844 108.15384,0.908732532 C109.553881,1.51455422 110.783647,2.34755904 111.843137,3.40774699 C112.902628,4.46793495 113.735085,5.69851025 114.340508,7.09947291 C114.945931,8.50043556 115.248643,9.99605785 115.248643,11.5863398 C115.248643,13.1766217 114.945931,14.672244 114.340508,16.0732067 C113.735085,17.4741693 112.902628,18.7047446 111.843137,19.7649326 C110.783647,20.8251205 109.553881,21.6581253 108.15384,22.263947 C106.753798,22.8697687 105.25916,23.1726796 103.669924,23.1726796 C102.080688,23.1726796 100.58605,22.8697687 99.1860084,22.263947 C97.7859672,21.6581253 96.5562013,20.8251205 95.4967107,19.7649326 C94.4372201,18.7047446 93.6047632,17.4741693 92.99934,16.0732067 C92.3939168,14.672244 92.0912052,13.1766217 92.0912052,11.5863398 Z" id="路径" fill="#46C3FE"></path>
            </g>
        </g>
    </g>
</svg>